<?xml version="1.0" encoding="UTF-8"?>
<svg width="13px" height="20px" viewBox="0 0 13 20" version="1.1" xmlns="http://www.w3.org/2000/svg" xmlns:xlink="http://www.w3.org/1999/xlink">
    <!-- Generator: sketchtool 51.2 (57519) - http://www.bohemiancoding.com/sketch -->
    <title>7269ED07-7E19-40B9-9497-508E79912E38</title>
    <desc>Created with sketchtool.</desc>
    <defs></defs>
    <g id="Page-1" stroke="none" stroke-width="1" fill="none" fill-rule="evenodd" stroke-linecap="round" stroke-linejoin="round">
        <g id="Slices" transform="translate(-1565.000000, -172.000000)" stroke="#2D18B4">
            <g id="Group-2" transform="translate(1566.000000, 173.000000)">
                <path d="M1.62378947,-9.09494702e-13 L9.74368421,-9.09494702e-13 C10.6408421,-9.09494702e-13 11.3684211,0.806210526 11.3684211,1.8 L11.3684211,16.2 C11.3684211,17.1937895 10.6408421,18 9.74368421,18 L1.62378947,18 C0.726631579,18 0,17.1937895 0,16.2 L0,1.8 C0,0.806210526 0.726631579,-9.09494702e-13 1.62378947,-9.09494702e-13 Z" id="Stroke-1"></path>
                <path d="M7.122,-9.09494702e-13 L3.74936842,-9.09494702e-13 C3.33536842,-9.09494702e-13 3,0.335368421 3,0.750315789 C3,1.16431579 3.33536842,1.49968421 3.74936842,1.49968421 L7.122,1.49968421 C7.536,1.49968421 7.87231579,1.16431579 7.87231579,0.750315789 C7.87231579,0.335368421 7.536,-9.09494702e-13 7.122,-9.09494702e-13 Z" id="Stroke-3" fill="#2D18B4"></path>
            </g>
        </g>
    </g>
</svg>