<?xml version="1.0"?>
<svg xmlns="http://www.w3.org/2000/svg" xmlns:xlink="http://www.w3.org/1999/xlink" version="1.1" viewBox="0 0 252 252" width="24px" height="24px"><g fill="none" fill-rule="nonzero" stroke="none" stroke-width="1" stroke-linecap="butt" stroke-linejoin="miter" stroke-miterlimit="10" stroke-dasharray="" stroke-dashoffset="0" font-family="none" font-weight="none" font-size="none" text-anchor="none" style="mix-blend-mode: normal"><path d="M0,252v-252h252v252z" fill="none"/><g id="Two-Tone" fill="#ffffff"><path d="M210,126c0,46.3155 -37.6845,84 -84,84c-46.3155,0 -84,-37.6845 -84,-84c0,-26.46 12.327,-50.064 31.5,-65.4675v-25.326c-31.332,18.186 -52.5,52.038 -52.5,90.7935c0,57.897 47.103,105 105,105c57.897,0 105,-47.103 105,-105c0,-57.897 -47.103,-105 -105,-105v21c46.3155,0 84,37.6845 84,84z"/><path d="M21,21h73.5v73.5z"/></g></g></svg>
