<?xml version="1.0" encoding="UTF-8"?>
<svg width="38px" height="38px" viewBox="0 0 38 38" version="1.1" xmlns="http://www.w3.org/2000/svg" xmlns:xlink="http://www.w3.org/1999/xlink">
    <!-- Generator: sketchtool 51.2 (57519) - http://www.bohemiancoding.com/sketch -->
    <title>FCD34F75-F4B7-40D3-B69D-0444519E6AB9</title>
    <desc>Created with sketchtool.</desc>
    <defs></defs>
    <g id="Page-1" stroke="none" stroke-width="1" fill="none" fill-rule="evenodd">
        <g id="Slices" transform="translate(-1487.000000, -292.000000)">
            <g id="Group-5" transform="translate(1488.000000, 293.000000)">
                <circle id="Oval-13" stroke="#FFFFFF" stroke-width="2" cx="18" cy="18" r="18"></circle>
                <g id="Group" transform="translate(10.000000, 9.000000)">
                    <path d="M5.95,15.4285714 L11.8149846,15.4285714 C11.5377312,16.8059016 10.3301661,17.8425682 8.8824923,17.8425682 C7.43481849,17.8425682 6.22725341,16.8059016 5.95,15.4285714 Z" id="Combined-Shape" fill="#FFFFFF"></path>
                    <path d="M17,12.8571428 L0,12.8571428 C1.40832611,12.8571428 2.55,11.705875 2.55,10.2857142 L2.55,5.99999991 C2.55000005,2.68629145 5.21390577,-3.80647894e-16 8.5,0 C11.7860942,3.80647894e-16 14.45,2.68629145 14.45,5.99999991 L14.45,10.2857142 C14.45,11.705875 15.5916739,12.8571428 17,12.8571428 Z" id="Shape" stroke="#FFFFFF" stroke-width="2"></path>
                </g>
            </g>
        </g>
    </g>
</svg>